<svg data-v-fde0c5aa="" xmlns="http://www.w3.org/2000/svg" viewBox="0 0 300 300" class="font"><!----><defs data-v-fde0c5aa=""><!----></defs><rect data-v-fde0c5aa="" fill="#EDF2F3" x="0" y="0" width="300px" height="300px" class="logo-background-square"></rect><defs data-v-fde0c5aa=""><linearGradient data-v-fde0c5aa="" gradientTransform="rotate(25)" id="e0355df0-f651-4621-80d2-2b5eac4c79df" x1="0%" y1="0%" x2="100%" y2="0%"><stop data-v-fde0c5aa="" offset="0%" stop-color="#20484F" stop-opacity="1"></stop><stop data-v-fde0c5aa="" offset="100%" stop-color="#4E9BAB" stop-opacity="1"></stop></linearGradient></defs><g data-v-fde0c5aa="" id="ede687fc-1e23-4713-8a08-94de38cc5fdb" fill="url(#e0355df0-f651-4621-80d2-2b5eac4c79df)" transform="matrix(3.777472666029399,0,0,3.777472666029399,38.3001372327403,120.78124639752134)"><path d="M1.62 10.43C1.78 10.54 2.04 10.61 2.37 10.61C2.88 10.61 3.43 10.37 3.57 9.72L4.28 6.30L4.49 6.30C6.80 6.30 8.75 4.68 8.75 2.16C8.75 0.84 7.80-0.28 5.33-0.28C2.60-0.28 0.45 0.64 0.45 2.30C0.45 3.00 0.87 3.63 1.58 3.63C1.78 3.63 1.97 3.58 2.18 3.49C2.02 3.29 1.90 3.04 1.90 2.67C1.90 1.62 2.70 0.39 5.05 0.39C6.47 0.39 7.03 1.25 7.03 2.27C7.03 4.21 5.88 5.57 4.42 5.64L5.40 1.02C5.24 0.91 5.00 0.84 4.75 0.84C4.26 0.84 3.72 1.06 3.58 1.71ZM13.73 8.33C13.83 8.06 13.66 7.76 13.40 7.80C13.13 8.57 12.01 9.25 11.24 9.25C10.75 9.25 10.39 8.97 10.49 8.25C10.50 8.08 10.53 7.90 10.56 7.73C12.36 4.97 13.27 2.73 13.27 1.64C13.27 0.91 12.81 0.50 12.15 0.50C10.32 0.50 9.38 3.47 8.74 8.54C8.55 10.01 9.30 10.61 10.28 10.61C11.56 10.61 13.24 9.60 13.73 8.33ZM12.25 1.43C12.40 1.43 12.49 1.50 12.49 1.74C12.49 2.21 11.97 4.20 10.74 6.48C11.21 3.53 11.79 1.43 12.25 1.43ZM16.73 3.37C14.78 3.37 13.20 5.81 13.20 8.26C13.20 9.16 13.50 10.61 14.95 10.61C15.75 10.61 16.49 10.02 17.08 9.20C17.07 10.30 17.72 10.61 18.38 10.61C19.14 10.61 20.15 9.97 20.80 9.23C20.89 9.13 20.93 9.02 20.93 8.92C20.93 8.78 20.85 8.65 20.69 8.58C20.34 8.93 19.74 9.28 19.22 9.28C18.86 9.28 18.63 9.03 18.80 8.25L19.78 3.61C19.61 3.50 19.38 3.43 19.12 3.43C18.77 3.43 18.41 3.56 18.17 3.84C17.82 3.53 17.36 3.37 16.73 3.37ZM17.11 8.29C16.73 8.81 16.14 9.17 15.69 9.17C15.26 9.17 14.94 8.86 14.94 8.16C14.94 6.64 15.54 4.42 17.23 4.42C17.44 4.42 17.65 4.45 17.89 4.54ZM20.65 7.92C20.37 9.23 20.45 10.60 21.84 10.60C22.54 10.60 23.17 10.14 23.72 9.45C23.60 9.83 23.52 10.18 23.42 10.51C21.10 11.55 19.19 12.39 19.19 14.17C19.19 15.33 20.10 15.89 20.89 15.89C23.38 15.89 24.42 13.13 25.06 10.53C26.05 10.07 27.01 9.44 27.26 9.21C27.50 9.00 27.45 8.69 27.24 8.51C26.75 8.93 26.01 9.35 25.24 9.73C25.28 9.55 25.33 9.35 25.37 9.16L26.56 3.61C26.39 3.50 26.15 3.43 25.90 3.43C25.40 3.43 24.86 3.67 24.72 4.31L23.81 8.50C23.49 8.81 23.14 9.00 22.74 9.00C22.27 9.00 22.16 8.67 22.26 8.23L23.13 4.20C23.25 3.67 22.96 3.43 22.46 3.43C21.87 3.43 21.36 3.72 20.89 4.10C20.61 4.33 20.71 4.76 20.89 4.87C21.01 4.76 21.10 4.70 21.17 4.70C21.29 4.70 21.36 4.83 21.31 5.05ZM20.90 14.64C20.72 14.64 20.33 14.48 20.33 13.99C20.33 12.92 21.48 12.25 23.14 11.44C22.43 13.69 21.87 14.64 20.90 14.64ZM33.17 0.48L33.24 0.48C31.19 7.31 29.78 9.03 28.67 9.45L28.67 9.32C28.67 9.00 28.73 8.43 28.97 7.88C28.77 7.73 28.52 7.64 28.27 7.64C27.64 7.64 27.08 7.88 27.08 8.69C27.08 9.94 27.58 10.61 28.28 10.61C29.95 10.61 31.42 8.62 33.31 2.59L33.24 4.23L32.73 10.43C32.90 10.54 33.15 10.61 33.40 10.61C33.92 10.61 34.34 10.43 34.59 9.79L37.65 2.62L36.71 8.95C36.51 10.23 37.34 10.61 38.11 10.61C38.92 10.61 39.75 10.02 40.52 9.23C40.60 9.13 40.64 9.02 40.64 8.92C40.64 8.78 40.56 8.65 40.40 8.58C40.08 8.86 39.42 9.28 38.98 9.28C38.60 9.28 38.40 9.07 38.51 8.25L39.66 0.18C39.49 0.07 39.14 0 38.89 0C38.37 0 37.94 0.27 37.69 0.90L34.44 8.22L34.94 0.77L34.96 0.77C35.28 0.77 35.45 0.49 35.45 0.22C35.45 0.08 35.39-0.06 35.25-0.14C34.65 0.20 33.46-0.42 32.30-0.42C30.65-0.42 29.97 0.59 29.97 1.47C29.97 2.17 30.39 2.80 31.11 2.80C31.30 2.80 31.50 2.76 31.71 2.66C31.54 2.46 31.43 2.16 31.43 1.85C31.43 1.19 31.89 0.48 33.17 0.48ZM43.82 3.37C41.71 3.37 40.24 6.02 40.24 8.13C40.24 9.45 40.85 10.61 42.29 10.61C44.49 10.61 45.99 7.97 45.99 5.88C45.99 4.51 45.35 3.37 43.82 3.37ZM44.13 4.44C44.70 4.44 44.94 5.01 44.94 5.77C44.94 7.24 44.04 9.39 42.94 9.39C42.45 9.39 42.03 8.92 42.03 7.69C42.03 6.31 42.85 4.44 44.13 4.44ZM51.74 10.61C52.50 10.61 53.51 9.97 54.17 9.23C54.25 9.13 54.29 9.02 54.29 8.92C54.29 8.78 54.21 8.65 54.05 8.58C53.70 8.93 53.10 9.28 52.58 9.28C52.22 9.28 52.00 9.03 52.16 8.25L53.63 1.27C53.75 0.74 53.47 0.50 52.96 0.50C52.21 0.50 51.20 1.18 51.20 1.50C51.20 1.61 51.21 1.75 51.41 1.93C51.63 1.67 51.90 1.75 51.81 2.13L51.46 3.77C51.13 3.50 50.69 3.37 50.12 3.37C48.17 3.37 46.59 5.81 46.59 8.26C46.59 9.16 46.89 10.61 48.34 10.61C49.14 10.61 49.88 10.02 50.47 9.20C50.46 10.30 51.09 10.61 51.74 10.61ZM50.50 8.29C50.12 8.81 49.53 9.17 49.08 9.17C48.65 9.17 48.33 8.86 48.33 8.16C48.33 6.64 48.93 4.42 50.62 4.42C50.83 4.42 51.06 4.47 51.30 4.55L50.50 8.30ZM55.37 10.61C57.43 10.61 58.24 9.60 58.24 8.25C58.24 6.47 55.94 6.79 55.94 5.31C55.94 4.55 56.38 4.17 56.76 4.17C57.09 4.17 57.39 4.41 57.39 4.93C57.39 5.21 57.29 5.52 57.15 5.68C57.33 5.81 57.53 5.87 57.71 5.88C58.23 5.91 58.69 5.52 58.69 4.73C58.69 3.82 58.11 3.37 56.92 3.37C55.30 3.37 54.53 4.41 54.53 5.53C54.53 7.63 56.84 7.50 56.84 8.57C56.84 9.25 56.27 9.69 55.73 9.69C55.29 9.69 54.85 9.41 54.85 8.76C54.85 8.43 54.96 8.09 55.15 7.88C54.99 7.74 54.81 7.69 54.59 7.69C53.90 7.69 53.49 8.19 53.40 8.76C53.24 9.70 53.87 10.61 55.37 10.61Z"></path></g><!----><!----></svg>